<svg version="1.1" id="Layer_1" xmlns="http://www.w3.org/2000/svg" xmlns:xlink="http://www.w3.org/1999/xlink" x="0px" y="0px" viewBox="0 0 245.1669 237.3477" enable-background="new 0 0 245.1669 237.3477" xml:space="preserve">
<g>
<path d="M75.3027,169.2188c0.0039-11.0322,0.5918-20.9199,1.7539-29.6074v-12.7911v-18.9394v-33.02
		c0.5928,1.2158,1.1905,2.6108,1.7813,4.2378c2.4961,6.9179,4.6367,17.7724,5.0879,34.0556
		c4.0713-8.9497,8.9433-13.2915,12.5234-15.3828c0.7783-0.4619,1.5752-0.8555,2.3818-1.1894
		c-1.8222-16.2076-5.5947-26.6651-10.248-33.7769c-3.2852-4.9853-7.1289-8.1836-10.6787-9.9541
		c-3.4385-1.7344-6.461-2.1177-8.2598-2.1357c-0.1054-0.0044-0.209-0.0162-0.3164-0.0162H30.6933
		c-0.1152,0-0.2285,0.0123-0.3437,0.0176c-1.8008,0.0196-4.8125,0.4058-8.2363,2.1333c-5.3799,2.666-11.1778,8.5015-15.2344,18.8418
		C2.7715,82.0708,0.0137,97.0767,0,119.7354c0,5.8545,0.1885,12.2226,0.5947,19.1582c0.249,4.251,3.7783,7.5322,7.9834,7.5332
		c0.1563,0,0.3125-0.0049,0.4707-0.0137c4.4121-0.2607,7.7774-4.0449,7.5195-8.4551c-0.3906-6.6523-0.5673-12.7109-0.5673-18.2226
		c-0.0352-24.2149,3.4961-37.8184,6.9638-44.918v33.0635v18.9394v98c0,6.8301,5.5371,12.3633,12.3633,12.3633
		c6.8281,0,12.3652-5.5332,12.3652-12.3633v-90.2714h4.6348v90.2714c0,6.8301,5.5371,12.3633,12.3633,12.3633
		c6.8281,0,12.3652-5.5332,12.3652-12.3633v-48.1191c-1.0742-1.4062-1.7246-3.1475-1.7422-5.0371
		C75.3066,170.8282,75.3027,170.0137,75.3027,169.2188z" id="id_101"></path>
<circle cx="50.0107" cy="22.5" r="22.5" id="id_102"></circle>
<path d="M165.292,226.9239c0,5.5234,4.4765,10,10,10c5.5205,0,10-4.4766,10-10v-49.544c-7.7051-0.0976-14.3828-0.8555-20-1.8974
		V226.9239z" id="id_103"></path>
<path d="M188.626,226.9239c0,5.5234,4.4746,10,10,10c5.5195,0,10-4.4766,10-10v-51.4424c-5.6172,1.0429-12.2959,1.8008-20,1.8984
		V226.9239z" id="id_104"></path>
<path d="M182.0849,51.668c11.5616,2.6914,23.1172-4.498,25.8086-16.0605s-4.498-23.1172-16.0586-25.8106
		c-11.5634-2.6914-23.1171,4.5-25.8105,16.0606C163.331,37.42,170.5215,48.9766,182.0849,51.668z" id="id_105"></path>
<path d="M143.5937,97.7735c1.6133,0.9453,3.7178,2.4956,5.9327,4.9687c3.6123-10.3052,7.6572-17.1987,11.2939-21.7695
		l-6.0127,29.5493c6.6484,12.6831,9.8975,31.9312,9.9209,58.6929l-0.0039,1.6113l-0.002,0.7949
		c-0.0009,0.2803-0.0175,0.5576-0.0459,0.8311c6.1397,1.1767,13.5791,2.0283,22.2813,2.0283
		c25.2646,0,39.9287-7.1572,42.8008-8.7031c0.3476-0.1866,0.5332-0.2969,0.5332-0.2969l-17.1914-84.4937
		c0.081,0.1011,0.1592,0.19,0.2402,0.293c6.7158,8.5869,14.7666,25.1548,18.8818,56.3775c0.4678,3.5576,3.7334,6.0634,7.294,5.5966
		c3.5576-0.4726,6.0635-3.7373,5.5937-7.2959C240.5,101.02,231.0156,81.8399,221.873,71.1856
		c-8.4326-9.8687-16.5429-12.0127-18.7158-12.3609c-1.8584-0.4594-8.7295-2.0756-16.1973-2.0991
		c-7.4667,0.0235-14.333,1.6377-16.1962,2.0982c-2.1641,0.3457-10.2823,2.4848-18.7198,12.3618
		c-4.7392,5.5224-9.5683,13.3437-13.7646,24.4546c0.293,0.0605,0.581,0.1372,0.8633,0.2309
		C140.6465,96.2754,142.1426,96.918,143.5937,97.7735z" id="id_106"></path>
<path d="M97.3359,158.7246v5.3575v62.9316c0,5.707,4.627,10.334,10.334,10.334c5.7051,0,10.332-4.627,10.332-10.334v-46.4258
		h4.0332v46.4258c0,5.707,4.627,10.334,10.3321,10.334s10.332-4.627,10.332-10.334v-62.9316v-5.3575H97.3359z" id="id_107"></path>
<path d="M162.7226,171.6153c0.002-0.7989,0.0059-1.5977,0.0059-2.3985c-0.0273-32.7383-5.0254-50.1386-10.9824-60.0742
		c-2.9805-4.9434-6.291-7.9609-9.1699-9.6465c-1.5391-0.9082-2.9161-1.4179-4.0039-1.709
		c-0.4532-0.1523-0.9297-0.2519-1.4258-0.2929c-0.2559-0.0352-0.4824-0.0586-0.6407-0.0664
		c-0.3847-0.0215-0.7636-0.0039-1.1328,0.041h-30.7226c-0.3672-0.043-0.7403-0.0606-1.1211-0.0391l-0.002-0.0019
		c-0.1582,0.0078-0.3828,0.0312-0.6386,0.0664c-0.4961,0.041-0.9727,0.1406-1.4258,0.2929
		c-1.0879,0.2911-2.4649,0.7989-4.0039,1.709c-4.3555,2.5449-9.5254,8.0176-13.4004,18.6192
		c-3.9004,10.6386-6.7481,26.5351-6.7559,51.1035c0,0.789,0.002,1.5976,0.0098,2.4277c0.0332,3.5703,2.9394,6.4375,6.5019,6.4375
		c0.0196,0,0.0411,0,0.0606,0c3.5918-0.0351,6.4707-2.9726,6.4375-6.5625c-0.0078-0.7695-0.0098-1.5371-0.0098-2.3027
		c-0.0254-26.2422,3.4922-41.1992,7.0332-49.3067v15.0118v19.5195h45.3633v-19.5195v-14.9961
		c3.5527,8.0937,7.0469,23.0703,7.0313,49.289c0,0.7578-0.0039,1.5352-0.0079,2.334c-0.0175,3.5899,2.877,6.5156,6.4688,6.5332
		c0.0117,0,0.0234,0,0.0332,0C159.8008,178.084,162.7051,175.1953,162.7226,171.6153z" id="id_108"></path>
<ellipse transform="matrix(1 -0.0063 0.0063 1 -0.4495 0.761)" cx="120.0176" cy="71.4063" rx="20.9101" ry="20.9121" id="id_109"></ellipse>
</g>
</svg>